===================================================================
Get all ThumperDCs newest releases first at:  http://thumperdc.org/	
===================================================================

Ghost.Rider.Spirit.of.Vengeance.2011.BRRip.XViD.AC3-ADTRG

As Johnny Blaze hides out in Eastern Europe, he is called upon to stop the devil, who is trying to take human form.
 
http://www.imdb.com/title/tt1071875/

Source -   Ghost Rider Spirit Of Vengeance 2011 720p BluRay X264-SPARKS  Thanks

Complete name                            : Ghost.Rider.Spirit.of.Vengeance.2011.BRRip.XViD.AC3-ADTRG.avi
Format                                   : AVI
Format/Info                              : Audio Video Interleave
File size                                : 1.46 GiB
Duration                                 : 1h 35mn
Overall bit rate                         : 2 189 Kbps
Writing library                          : VirtualDub build 34703/release

Video
ID                                       : 0
Format                                   : MPEG-4 Visual
Codec ID                                 : XVID
Bit rate                                 : 1 796 Kbps
Width                                    : 720 pixels
Height                                   : 304 pixels
Display aspect ratio                     : 2.35:1
Frame rate                               : 23.976 fps
Stream size                              : 1.20 GiB (82%)

Audio
ID                                       : 1
Format                                   : AC-3
Bit rate                                 : 384 Kbps
Channel(s)                               : 6 channels
Channel positions                        : Front: L C R, Side: L R, LFE
Sampling rate                            : 48.0 KHz
Stream size                              : 262 MiB (18%)

Screens: http://screensnapr.com/e/ECmqcF.jpg

IMDB: http://www.imdb.com/title/tt1071875/

====================================================================================
Note: If You Have Problem With Any Of my Torrents Register To My Site And PM Me About Your  Problem:  http://thumperdc.org/	
====================================================================================